<?xml version="1.0" encoding="utf-8"?>
<!-- Generator: Adobe Illustrator 23.0.3, SVG Export Plug-In . SVG Version: 6.00 Build 0)  -->
<svg version="1.1" id="Layer_1" xmlns="http://www.w3.org/2000/svg" xmlns:xlink="http://www.w3.org/1999/xlink" x="0px" y="0px"
	 viewBox="0 0 2570 1000" style="enable-background:new 0 0 2570 1000;" xml:space="preserve">
<style type="text/css">
	.st0{fill:#FFFFFF;}
	.st1{fill:#FFFF00;}
</style>
<g>
	<path class="st0" d="M1397.3,888.9c0,30.7-24.9,55.6-55.6,55.6h-111.1c-30.7,0-55.6-24.9-55.6-55.6H564
		c0,61.4,49.7,111.1,111.1,111.1h1222.2c61.4,0,111.1-49.7,111.1-111.1H1397.3z"/>
	<g>
		<path class="st0" d="M675.1,187.7V83.3c0-15.3,12.4-27.8,27.8-27.8h1166.7c15.3,0,27.8,12.4,27.8,27.8v104.4h55.6V55.6
			c0-30.7-24.9-55.6-55.6-55.6H675.1c-30.7,0-55.6,24.9-55.6,55.6v132.2H675.1z"/>
		<rect x="1897.3" y="721.3" class="st0" width="55.6" height="112"/>
		<rect x="619.5" y="721.3" class="st0" width="55.6" height="112"/>
	</g>
	<g>
		<path class="st0" d="M20.6,363c-0.4-7.4-3.9-10.5-10.9-10.5H0l9.6-48.6h39c19.7,0,30.2,5.7,31.1,25.4l7,185.2
			c0.4,17.5-1.3,32.8-1.3,32.8h0.9c0,0,4.4-14.9,12.7-32.8l97.6-209.7h48.6l12.7,209.7c0.9,17.9-0.4,32.8-0.4,32.8h0.9
			c0,0,3.9-15.3,11.4-32.8l79.2-185.2c8.3-20.1,21.9-25.4,39.8-25.4h40.7l-9.2,48.6h-9.6c-6.1,0-11.4,2.2-14.9,9.6L282.3,614.7
			h-66.5l-12.7-176c-1.8-19.7-0.4-38.5-0.4-38.5h-0.9c0,0-6.1,18.4-15.8,38.5l-84,176H35.9L20.6,363z"/>
		<path class="st0" d="M522.2,386.2c59.5,0,88.9,35,88.9,84.5c0,19.3-8.3,42-8.3,42H449.6c0,0-0.9,4.8-0.9,9.6
			c0,29.8,20.6,50.8,55.6,50.8c36.3,0,69.2-24.5,69.2-24.5l14.9,42.5c0,0-38.1,28.9-87.6,28.9c-69.6,0-108.1-41.6-108.1-96.3
			C392.7,448.4,447.8,386.2,522.2,386.2z M555.9,474.2c0,0,0.4-3.9,0.4-8.3c0-23.6-14.4-36.8-35.5-36.8c-28.5,0-50.8,18.8-61.7,45.1
			H555.9z"/>
		<path class="st0" d="M675.9,367.4c0.4-3.1,1.3-6.6,1.3-9.6c0-4.4-2.6-6.6-7.9-6.6h-17.5l9.2-47.3h51.2c17.9,0,26.3,6.6,26.3,21
			c0,3.5-0.9,8.3-1.8,13.1l-11.8,60.4c-2.2,10.9-5.3,20.1-5.3,20.1h0.9c15.3-19.3,42-32.4,68.3-32.4c53.4,0,84.5,36.8,84.5,94.1
			c0,82.7-60.8,139.6-121.7,139.6c-27.6,0-54.3-11.4-66.1-36.8h-0.9c0,0,0,7.4-1.8,15.8l-3.1,15.8h-52.1L675.9,367.4z M745,573.2
			c33.3,0,71.8-32.8,71.8-88.9c0-31.1-16.6-50.3-44.2-50.3c-36.8,0-71.8,39.8-71.8,89.7C700.8,550.8,714.4,573.2,745,573.2z"/>
		<path class="st0" d="M914.5,533.8c0,0,25.4,34.6,71.8,34.6c33.3,0,54.3-17.9,54.3-41.1c0-52.1-122.1-42.9-122.1-133.5
			c0-58.2,52.1-95,112.9-95c41.1,0,89.7,17.1,89.7,52.1c0,3.9-0.4,10.5-1.8,15.3l-4.4,22.8h-50.8l1.8-8.8c0.9-2.6,1.3-6.1,1.3-8.8
			c0-14-17.1-20.6-37.6-20.6c-34.6,0-53.4,17.9-53.4,39c0,50.3,122.6,37.6,122.6,130.9c0,55.6-43.8,99.4-113.4,99.4
			c-71.8,0-106.4-47.3-106.4-47.3L914.5,533.8z"/>
		<path class="st0" d="M1112.3,566.1h8.3c6.6,0,9.6-1.8,14-9.6L1276,303.9h60l42.9,253c1.3,7.4,3.5,9.2,10.5,9.2h8.3l-9.6,48.6
			h-34.1c-20.6,0-27.1-5.7-30.2-25.4l-8.8-54.3h-105.1l-30.2,54.3c-10.1,19.3-17.9,25.4-37.6,25.4h-39L1112.3,566.1z M1311,487.8
			l-11.8-77.9c-2.2-17.1-3.1-46.4-3.1-46.4h-0.9c0,0-12.3,29.3-21.4,46.4l-41.6,77.9H1311z"/>
		<path class="st0" d="M1420.5,566.1h30.6l41.6-213.6h-31.1l9.2-48.6h116.9l-9.2,48.6H1547l-41.6,213.6h31.1l-9.2,48.6h-116.4
			L1420.5,566.1z"/>
		<path class="st1" d="M1571.1,585c0-117.8,190-123.9,190-200.5c0-21.9-14.9-33.3-39.4-33.3c-23.2,0-41.1,10.1-44.2,26.3l-2.2,11.8
			h-52.1l5.3-26.7c8.3-43.3,56.5-63.9,101.6-63.9c51.2,0,90.2,27.1,90.2,79.2c0,109.4-182.1,131.8-182.1,181.2c0,5.7,2.2,7,10.5,7
			h88c6.6,0,10.1-3.5,11.4-9.6l3.9-18.8h52.1l-9.2,47.3c-4.4,21-14.9,29.8-35.5,29.8h-161.5C1576.3,614.7,1571.1,603.8,1571.1,585z"
			/>
		<path class="st1" d="M1993.9,298.7c71.4,0,96.3,42.9,96.3,104.6c0,79.2-35,216.7-142.3,216.7c-70.5,0-95.9-42.9-95.9-105.1
			C1852.1,435.7,1887.1,298.7,1993.9,298.7z M1949.3,569.7c59.1,0,82.7-106.8,82.7-163.3c0-34.6-10.5-57.3-39.4-57.3
			c-57.3,0-82.3,104.2-82.3,164.2C1910.3,546.9,1920.8,569.7,1949.3,569.7z"/>
		<path class="st1" d="M2106.9,566.1h67l33.7-172.5c1.8-10.5,4.4-21,4.4-21h-0.9c0,0-5.3,7.4-17.1,17.5l-29.3,23.6l-26.7-35
			l92.8-74.9h51.7l-51.2,262.2h67l-9.6,48.6h-190.9L2106.9,566.1z"/>
		<path class="st1" d="M2349.8,560.5c0,0,18.8,9.2,42.9,9.2c50.8,0,86.2-41.1,102.4-85.4h-0.9c-13.6,13.6-38.1,21.9-60.8,21.9
			c-55.6,0-86.2-39-86.2-85.8c0-59.5,45.1-121.7,118.2-121.7c60,0,104.6,42,104.6,115.1c0,83.6-65.2,206.2-178.6,206.2
			c-39.4,0-63.5-14-63.5-14L2349.8,560.5z M2512.7,409.9c0-31.5-20.6-60.8-50.3-60.8c-33.7,0-57.8,32-57.8,67.4
			c0,24.1,14.4,43.3,48.2,43.3C2484.6,459.8,2512.7,438.8,2512.7,409.9z"/>
	</g>
</g>
</svg>
